<!-- Option 1 -->
<!-- <svg xmlns="http://www.w3.org/2000/svg" width="40" height="40" fill="none" viewBox="0 0 24 24"
    stroke-width="1.5" stroke="currentColor">
    <path stroke-linecap="round" stroke-linejoin="round"
        d="M19.5 14.25v-2.625a3.375 3.375 0 0 0-3.375-3.375h-1.5A1.125 1.125 0 0 1 13.5 7.125v-1.5a3.375
3.375 0 0 0-3.375-3.375H8.25m2.25 0H5.625c-.621 0-1.125.504-1.125 1.125v17.25c0 .621.504 1.125
1.125
1.125h12.75c0 .621.504 1.125 1.125-1.125V11.25a9 9 0 0 0-9-9Z" />
</svg> -->

<!-- Option 2 -->
<svg xmlns="http://www.w3.org/2000/svg" width="24" height="24" viewBox="0 0 24 24"
    fill="currentColor"
    stroke="white" stroke-width="2" stroke-linecap="round" stroke-linejoin="round">
    <path d="M14 2H6a2 2 0 0 0-2 2v16a2 2 0 0 0 2 2h12a2 2 0 0 0 2-2V8z" />
    <polyline points="14,2 14,8 20,8" />
    <line x1="16" y1="13" x2="8" y2="13" />
    <line x1="16" y1="17" x2="8" y2="17" />
    <line x1="10" y1="9" x2="8" y2="9" />
</svg>
