<!-- Option 1 -->
<!-- Plus Circle Icon -->
<!-- <svg xmlns="http://www.w3.org/2000/svg" width="40" height="40" fill="none" viewBox="0 0 24 24"
    stroke-width="1.5" stroke="currentColor">
    <path stroke-linecap="round" stroke-linejoin="round"
        d="M12 9v6m3-3H9m12 0a9 9 0 1 1-18 0 9 9 0 0 1 18 0Z" />
</svg> -->

<!-- Option 2 -->
<!-- Edit Icon -->
<!-- <svg xmlns="http://www.w3.org/2000/svg" width="40" height="40" viewBox="0 0 24 24" fill="none"
stroke="currentColor" stroke-width="2" stroke-linecap="round" stroke-linejoin="round">
  <path d="M11 4H4a2 2 0 0 0-2 2v14a2 2 0 0 0 2 2h14a2 2 0 0 0 2-2v-7"/>
  <path d="M18.5 2.5a2.121 2.121 0 0 1 3 3L12 15l-4 1 1-4 9.5-9.5z"/>
</svg> -->

<!-- Option 3 -->
<!-- Pen Tool Icon -->
<svg xmlns="http://www.w3.org/2000/svg" width="24" height="24" viewBox="0 0 24 24"
  fill="currentColor"
  stroke="white" stroke-width="2" stroke-linecap="round" stroke-linejoin="round">
  <path d="m12 19 7-7 3 3-7 7-3-3z" />
  <path d="m18 13-1.5-7.5L2 2l3.5 14.5L13 18l5-5z" />
  <path d="m2 2 7.586 7.586" />
  <circle cx="11" cy="11" r="2" />
</svg>
